REM DIRINDEX 1\4,1\2\5,1\2\6,1\3\7,1\3\8,1\3\9,1\3\10
REM DIRNAME folder01,folder02,folder03,folder04,folder05,folder06,folder07,folder08,folder09,folder10
TITLE ""
FILE "DISC2Track21.mp3" MP3
  TRACK 01 AUDIO
    TITLE "0:"
    INDEX 01 00:00:00
  TRACK 02 AUDIO
    TITLE "7:cjc107_1734"
    INDEX 01 00:00:01
  TRACK 03 AUDIO
    TITLE "0:"
    INDEX 01 00:03:10
  TRACK 04 AUDIO
    TITLE "8:cjc107_1735"
    INDEX 01 00:04:23
  TRACK 05 AUDIO
    TITLE "0:"
    INDEX 01 00:05:50
  TRACK 06 AUDIO
    TITLE "9:cjc107_1736"
    INDEX 01 00:05:63
  TRACK 07 AUDIO
    TITLE "0:"
    INDEX 01 00:07:74
  TRACK 08 AUDIO
    TITLE "8:cjc107_1737"
    INDEX 01 00:08:44
  TRACK 09 AUDIO
    TITLE "0:"
    INDEX 01 00:09:55
  TRACK 10 AUDIO
    TITLE "9:cjc107_1738"
    INDEX 01 00:09:67
  TRACK 11 AUDIO
    TITLE "0:"
    INDEX 01 00:12:34
  TRACK 12 AUDIO
    TITLE "8:cjc107_1739"
    INDEX 01 00:13:06
  TRACK 13 AUDIO
    TITLE "0:"
    INDEX 01 00:14:25
  TRACK 14 AUDIO
    TITLE "9:cjc107_1740"
    INDEX 01 00:14:39
  TRACK 15 AUDIO
    TITLE "0:"
    INDEX 01 00:18:64
  TRACK 16 AUDIO
    TITLE "8:cjc107_1741"
    INDEX 01 00:19:42
  TRACK 17 AUDIO
    TITLE "0:"
    INDEX 01 00:20:45
  TRACK 18 AUDIO
    TITLE "9:cjc107_1742"
    INDEX 01 00:20:51
  TRACK 19 AUDIO
    TITLE "0:"
    INDEX 01 00:22:21
  TRACK 20 AUDIO
    TITLE "8:cjc107_1743"
    INDEX 01 00:22:68
  TRACK 21 AUDIO
    TITLE "0:"
    INDEX 01 00:24:08
  TRACK 22 AUDIO
    TITLE "9:cjc107_1744"
    INDEX 01 00:24:16
  TRACK 23 AUDIO
    TITLE "0:"
    INDEX 01 00:25:27
  TRACK 24 AUDIO
    TITLE "8:cjc107_1745"
    INDEX 01 00:26:01
  TRACK 25 AUDIO
    TITLE "0:"
    INDEX 01 00:27:53
  TRACK 26 AUDIO
    TITLE "9:cjc107_1746"
    INDEX 01 00:27:59
  TRACK 27 AUDIO
    TITLE "0:"
    INDEX 01 00:29:48
  TRACK 28 AUDIO
    TITLE "8:cjc107_1747"
    INDEX 01 00:30:22
  TRACK 29 AUDIO
    TITLE "0:"
    INDEX 01 00:31:27
  TRACK 30 AUDIO
    TITLE "9:cjc107_1748"
    INDEX 01 00:31:39
  TRACK 31 AUDIO
    TITLE "0:"
    INDEX 01 00:32:54
  TRACK 32 AUDIO
    TITLE "8:cjc107_1749"
    INDEX 01 00:33:28
  TRACK 33 AUDIO
    TITLE "0:"
    INDEX 01 00:34:53
  TRACK 34 AUDIO
    TITLE "9:cjc107_1750"
    INDEX 01 00:34:57
  TRACK 35 AUDIO
    TITLE "0:"
    INDEX 01 00:36:13
  TRACK 36 AUDIO
    TITLE "8:cjc107_1751"
    INDEX 01 00:36:62
  TRACK 37 AUDIO
    TITLE "0:"
    INDEX 01 00:37:63
  TRACK 38 AUDIO
    TITLE "9:cjc107_1752"
    INDEX 01 00:37:65
  TRACK 39 AUDIO
    TITLE "0:"
    INDEX 01 00:39:51
  TRACK 40 AUDIO
    TITLE "8:cjc107_1753"
    INDEX 01 00:40:24
  TRACK 41 AUDIO
    TITLE "0:"
    INDEX 01 00:41:51
  TRACK 42 AUDIO
    TITLE "9:cjc107_1754"
    INDEX 01 00:41:57
  TRACK 43 AUDIO
    TITLE "0:"
    INDEX 01 00:42:55
  TRACK 44 AUDIO
    TITLE "8:cjc107_1755"
    INDEX 01 00:43:33
  TRACK 45 AUDIO
    TITLE "0:"
    INDEX 01 00:44:24
  TRACK 46 AUDIO
    TITLE "9:cjc107_1756"
    INDEX 01 00:44:30
  TRACK 47 AUDIO
    TITLE "0:"
    INDEX 01 00:45:49
  TRACK 48 AUDIO
    TITLE "8:cjc107_1757"
    INDEX 01 00:46:23
  TRACK 49 AUDIO
    TITLE "0:"
    INDEX 01 00:47:46
  TRACK 50 AUDIO
    TITLE "9:cjc107_1758"
    INDEX 01 00:47:48
  TRACK 51 AUDIO
    TITLE "0:"
    INDEX 01 00:50:13
  TRACK 52 AUDIO
    TITLE "8:cjc107_1759"
    INDEX 01 00:50:60
  TRACK 53 AUDIO
    TITLE "0:"
    INDEX 01 00:52:22
  TRACK 54 AUDIO
    TITLE "9:cjc107_1760"
    INDEX 01 00:52:24
  TRACK 55 AUDIO
    TITLE "0:"
    INDEX 01 00:54:58
  TRACK 56 AUDIO
    TITLE "10:cjc107_1761"
    INDEX 01 00:56:29
  TRACK 57 AUDIO
    TITLE "10:cjc107_1762"
    INDEX 01 01:07:53
  TRACK 58 AUDIO
    TITLE "10:cjc107_1763"
    INDEX 01 01:14:47
  TRACK 59 AUDIO
    TITLE "10:cjc107_1764"
    INDEX 01 01:21:25
  TRACK 60 AUDIO
    TITLE "10:cjc107_1765"
    INDEX 01 01:31:61
  TRACK 61 AUDIO
    TITLE "0:"
    INDEX 01 01:35:47
